<svg width="25" height="25" fill="none" xmlns="http://www.w3.org/2000/svg"><path fill-rule="evenodd" clip-rule="evenodd" d="M10.818 18.994a1 1 0 0 1-.729-.315l-4.862-5.178a.999.999 0 1 1 1.457-1.368l4.124 4.39 8.406-9.2a1 1 0 0 1 1.477 1.348l-9.135 9.997a.998.998 0 0 1-.73.326h-.008z" fill="#fff"/><mask id="a" maskUnits="userSpaceOnUse" x="4" y="6" width="17" height="13"><path fill-rule="evenodd" clip-rule="evenodd" d="M10.818 18.994a1 1 0 0 1-.729-.315l-4.862-5.178a.999.999 0 1 1 1.457-1.368l4.124 4.39 8.406-9.2a1 1 0 0 1 1.477 1.348l-9.135 9.997a.998.998 0 0 1-.73.326h-.008z" fill="#fff"/></mask></svg>