<svg width="33" height="33" fill="none" xmlns="http://www.w3.org/2000/svg"><circle cx="16.683" cy="16.956" r="15.996" fill="#242424"/><g clip-path="url(#a)"><path d="M16.684 7.959c-4.954 0-8.997 4.044-8.997 8.998s4.043 8.998 8.997 8.998c4.955 0 8.998-4.044 8.998-8.998 0-4.955-4.043-8.998-8.998-8.998zm6.104 3.92a7.906 7.906 0 0 1 1.838 4.951c-1.408-.329-2.972-.351-4.564-.06-.415.075-.829.17-1.24.286a25.155 25.155 0 0 0-.937-2.212c1.898-.725 3.954-1.804 4.902-2.966zm-6.104-2.866c2.068 0 3.953.794 5.367 2.093-.551.753-2.124 1.848-4.647 2.793a22.916 22.916 0 0 0-3.157-4.502 7.908 7.908 0 0 1 2.437-.384zm-3.481.805a21.948 21.948 0 0 1 3.197 4.43c-2.625.85-5.282 1.197-7.467.973a7.973 7.973 0 0 1 4.27-5.403zm-4.462 7.139c0-.233.01-.464.03-.692.483.05.986.076 1.506.076 2.05 0 4.353-.394 6.615-1.143.345.706.655 1.433.93 2.178-.883.317-1.741.72-2.547 1.2-1.976 1.176-3.422 2.69-4.021 4.172a7.923 7.923 0 0 1-2.513-5.791zm7.943 7.943a7.9 7.9 0 0 1-4.564-1.446c.4-1.354 1.756-2.818 3.695-3.972.682-.407 1.481-.79 2.35-1.102.616 1.936.994 3.98 1.114 6.085a7.907 7.907 0 0 1-2.595.435zm3.623-.875a25.52 25.52 0 0 0-1.14-5.962c1.708-.47 3.605-.627 5.404-.16a7.963 7.963 0 0 1-4.264 6.122z" fill="#F2F2F2"/></g><defs><clipPath id="a"><path fill="#fff" transform="translate(7.687 7.959)" d="M0 0h17.996v17.996H0z"/></clipPath></defs></svg>