<svg width="33" height="33" fill="none" xmlns="http://www.w3.org/2000/svg"><g clip-path="url(#a)"><path d="M16.666.96C7.833.96.669 8.123.669 16.956s7.164 15.997 15.997 15.997 15.996-7.164 15.996-15.997S25.499.96 16.666.96zm-4.649 24.182H8.122v-11.72h3.895v11.72zM10.07 11.82h-.026c-1.307 0-2.153-.9-2.153-2.025 0-1.15.872-2.025 2.204-2.025 1.333 0 2.153.875 2.179 2.025 0 1.125-.846 2.025-2.204 2.025zm15.995 13.32H22.17v-6.27c0-1.575-.565-2.65-1.974-2.65-1.076 0-1.717.725-1.999 1.425-.103.25-.128.6-.128.95v6.546h-3.896s.051-10.621 0-11.72h3.896v1.659c.518-.799 1.444-1.935 3.51-1.935 2.564 0 4.486 1.675 4.486 5.275v6.72z" fill="#242424"/></g><defs><clipPath id="a"><path fill="#fff" transform="translate(.67 .96)" d="M0 0h31.993v31.993H0z"/></clipPath></defs></svg>