<svg width="24" height="24" fill="none" xmlns="http://www.w3.org/2000/svg"><path d="M12.976 2.614l2.227 4.474c.164.324.477.55.838.6l5.001.728c.292.04.557.195.736.43.177.232.253.526.21.815-.035.24-.148.462-.32.633l-3.625 3.512a1.056 1.056 0 0 0-.32.964l.892 4.938c.095.597-.3 1.159-.893 1.272a1.168 1.168 0 0 1-.714-.114l-4.46-2.324a1.169 1.169 0 0 0-1.054 0l-4.461 2.324a1.143 1.143 0 0 1-1.532-.447 1.131 1.131 0 0 1-.116-.7l.892-4.94a1.061 1.061 0 0 0-.321-.964l-3.624-3.51a1.084 1.084 0 0 1 0-1.562c.172-.175.398-.286.642-.315l5.001-.73c.36-.05.673-.274.838-.6l2.147-4.484A1.107 1.107 0 0 1 11.977 2h.134c.373.045.698.276.865.614z" fill="#F150C9"/></svg>