<svg width="36" height="36" fill="none" xmlns="http://www.w3.org/2000/svg"><path clip-rule="evenodd" d="M19.656 6.266l2.742 5.476c.268.537.787.91 1.388.996l6.132.883c1.515.219 2.118 2.055 1.021 3.107l-4.434 4.26a1.805 1.805 0 0 0-.53 1.614l1.046 6.015c.257 1.488-1.326 2.623-2.68 1.92l-5.481-2.843a1.872 1.872 0 0 0-1.72 0l-5.48 2.842c-1.355.704-2.938-.431-2.68-1.92l1.046-6.014a1.805 1.805 0 0 0-.531-1.613L5.06 16.728c-1.097-1.052-.494-2.888 1.021-3.107l6.132-.883a1.845 1.845 0 0 0 1.39-.996l2.74-5.476c.677-1.354 2.634-1.354 3.312 0z" stroke="#fff" stroke-width="2.25" stroke-linecap="round" stroke-linejoin="round"/></svg>