<svg width="33" height="33" fill="none" xmlns="http://www.w3.org/2000/svg"><path d="M16.693.96C7.86.96.697 8.125.697 16.958S7.86 32.953 16.693 32.953 32.69 25.79 32.69 16.957 25.526.961 16.693.961zm7.304 12.473c.007.158.01.316.01.475 0 4.851-3.693 10.446-10.446 10.446-2.074 0-4.003-.608-5.628-1.65a7.367 7.367 0 0 0 5.436-1.52 3.676 3.676 0 0 1-3.43-2.55 3.651 3.651 0 0 0 1.658-.063 3.673 3.673 0 0 1-2.945-3.646c.495.275 1.06.44 1.663.46a3.668 3.668 0 0 1-1.634-3.057c0-.673.182-1.303.497-1.846a10.424 10.424 0 0 0 7.568 3.837 3.672 3.672 0 0 1 6.257-3.348 7.367 7.367 0 0 0 2.331-.892 3.686 3.686 0 0 1-1.614 2.031 7.324 7.324 0 0 0 2.108-.578 7.462 7.462 0 0 1-1.831 1.901z" fill="#242424"/></svg>