<svg width="36" height="36" fill="none" xmlns="http://www.w3.org/2000/svg"><g stroke="#fff" stroke-width="2.25" stroke-linecap="round" stroke-linejoin="round"><path clip-rule="evenodd" d="M24.445 23.308c.122 2.748-2.096 5.071-4.953 5.188-.21.01-10.469-.012-10.469-.012-2.843.216-5.331-1.827-5.555-4.565-.017-.204-.013-11.21-.013-11.21-.126-2.752 2.09-5.082 4.948-5.203.213-.01 10.458.01 10.458.01 2.857-.214 5.352 1.844 5.574 4.595.015.198.01 11.197.01 11.197z"/><path d="M24.45 14.97l4.94-4.043c1.224-1.002 3.06-.129 3.058 1.45l-.018 11.024c-.001 1.58-1.839 2.445-3.06 1.443l-4.92-4.042"/></g></svg>